<svg width="25" height="25" viewBox="0 0 25 25" fill="none" xmlns="http://www.w3.org/2000/svg">
<path d="M5.05628 4.54996L5.59182 4.01442C6.76339 2.84285 8.66288 2.84285 9.83446 4.01442L10.7633 4.9433C11.7183 5.89824 11.9174 7.37355 11.2499 8.54753L11.195 8.64406C10.6602 9.58461 10.6627 10.7485 11.2971 11.625C11.6131 12.0617 11.9701 12.514 12.3093 12.8533C12.6485 13.1925 13.1009 13.5495 13.5376 13.8655C14.4141 14.4999 15.578 14.5024 16.5185 13.9676L16.6151 13.9127C17.789 13.2451 19.2643 13.4443 20.2193 14.3993L21.1482 15.3281C22.3197 16.4997 22.3197 18.3992 21.1482 19.5708L20.6126 20.1063C20.05 20.6689 19.2836 20.9824 18.51 20.7964C16.8567 20.3991 13.6708 19.1645 9.83446 15.3281C5.99812 11.4918 4.76349 8.30589 4.36616 6.65261C4.18023 5.87899 4.49367 5.11257 5.05628 4.54996Z" fill="white"/>
</svg>
