<svg width="40" height="41" viewBox="0 0 40 41" fill="none" xmlns="http://www.w3.org/2000/svg">
<path d="M38.535 19.2883H36.33C35.4443 11.0955 28.3943 4.57617 19.9921 4.57617C15.0986 4.57617 10.6564 6.7976 7.62999 10.2905C7.01785 10.9833 7.11427 11.8355 7.74213 12.2862C8.38642 12.7369 9.14213 12.5926 9.67427 11.9969C10.9586 10.5231 12.5444 9.34216 14.3244 8.53403C16.1044 7.72589 18.0372 7.30937 19.9921 7.3126C23.3278 7.30156 26.5516 8.51461 29.0525 10.7219C31.5535 12.9291 33.1578 15.9772 33.5614 19.2883H31.1628C30.02 19.2883 29.7143 20.0612 30.3414 20.9462L33.9314 26.0812C34.4464 26.8219 35.2193 26.8383 35.7507 26.0812L39.3557 20.9626C40 20.0612 39.6943 19.2883 38.535 19.2883ZM1.46499 22.7169H3.66999C4.5557 30.9097 11.6057 37.4133 19.9914 37.4133C24.9171 37.4133 29.36 35.1755 32.3864 31.699C32.9657 31.0062 32.885 30.1376 32.2736 29.6869C31.63 29.2362 30.8736 29.3969 30.3421 29.9926C27.8636 32.874 24.1607 34.6769 19.9921 34.6769C16.6605 34.6883 13.4405 33.477 10.9425 31.2726C8.44438 29.0682 6.84183 26.024 6.43856 22.7169H8.83713C9.97999 22.7169 10.2857 21.9283 9.65856 21.0597L6.05213 15.924C5.53785 15.184 4.7807 15.1676 4.24927 15.924L0.643561 21.0433C-1.08182e-05 21.929 0.305704 22.7169 1.46499 22.7169Z" fill="white"/>
<path d="M16.4291 18.3771C16.4291 18.3771 15.7148 18.3771 15.7148 17.6628C15.7148 16.9485 16.4291 14.8057 20.0006 14.8057C23.572 14.8057 24.2863 16.9485 24.2863 17.6628C24.2863 18.3771 23.572 18.3771 23.572 18.3771H16.4291ZM20.0006 14.0914C20.5689 14.0914 21.1139 13.8656 21.5158 13.4637C21.9177 13.0619 22.1434 12.5168 22.1434 11.9485C22.1434 11.3802 21.9177 10.8352 21.5158 10.4333C21.1139 10.0314 20.5689 9.80566 20.0006 9.80566C19.4322 9.80566 18.8872 10.0314 18.4853 10.4333C18.0835 10.8352 17.8577 11.3802 17.8577 11.9485C17.8577 12.5168 18.0835 13.0619 18.4853 13.4637C18.8872 13.8656 19.4322 14.0914 20.0006 14.0914Z" fill="white"/>
<g clip-path="url(#clip0_145_532)">
<path d="M19.9997 26.3231C21.3376 26.3231 22.5497 26.766 23.439 27.3852C24.284 27.9745 24.9997 28.8502 24.9997 29.7924C24.9997 30.3095 24.779 30.7381 24.4311 31.0567C24.104 31.3574 23.6769 31.5524 23.2369 31.6852C22.3576 31.9517 21.1997 32.0374 19.9997 32.0374C18.7997 32.0374 17.6419 31.9517 16.7626 31.6852C16.3226 31.5524 15.8954 31.3574 15.5676 31.0567C15.2211 30.7388 14.9997 30.3102 14.9997 29.7931C14.9997 28.851 15.7154 27.9752 16.5604 27.386C17.4497 26.766 18.6619 26.3231 19.9997 26.3231ZM24.9997 27.0374C25.7454 27.0374 26.4226 27.2838 26.9233 27.6324C27.3804 27.9517 27.8569 28.4824 27.8569 29.1295C27.8569 29.4988 27.6961 29.8052 27.4569 30.0245C27.2383 30.2252 26.9683 30.3431 26.7219 30.4174C26.3861 30.5188 25.9897 30.571 25.5783 30.5938C25.6654 30.3474 25.714 30.0795 25.714 29.7924C25.714 28.696 25.029 27.7645 24.2626 27.1181C24.5047 27.0646 24.7518 27.0376 24.9997 27.0374ZM14.9997 27.0374C15.2554 27.0383 15.5011 27.0652 15.7369 27.1181C14.9711 27.7645 14.2854 28.696 14.2854 29.7924C14.2854 30.0795 14.334 30.3474 14.4211 30.5938C14.0097 30.571 13.614 30.5188 13.2776 30.4174C13.0311 30.3431 12.7611 30.2252 12.5419 30.0245C12.4162 29.9119 12.3156 29.7741 12.2468 29.62C12.178 29.4659 12.1425 29.299 12.1426 29.1302C12.1426 28.4838 12.6183 27.9524 13.0761 27.6331C13.6425 27.2449 14.3131 27.0372 14.9997 27.0374ZM24.6426 22.7517C25.1162 22.7517 25.5704 22.9398 25.9053 23.2747C26.2402 23.6096 26.4283 24.0638 26.4283 24.5374C26.4283 25.011 26.2402 25.4652 25.9053 25.8001C25.5704 26.135 25.1162 26.3231 24.6426 26.3231C24.169 26.3231 23.7148 26.135 23.3799 25.8001C23.045 25.4652 22.8569 25.011 22.8569 24.5374C22.8569 24.0638 23.045 23.6096 23.3799 23.2747C23.7148 22.9398 24.169 22.7517 24.6426 22.7517ZM15.3569 22.7517C15.8305 22.7517 16.2847 22.9398 16.6196 23.2747C16.9544 23.6096 17.1426 24.0638 17.1426 24.5374C17.1426 25.011 16.9544 25.4652 16.6196 25.8001C16.2847 26.135 15.8305 26.3231 15.3569 26.3231C14.8833 26.3231 14.4291 26.135 14.0942 25.8001C13.7593 25.4652 13.5711 25.011 13.5711 24.5374C13.5711 24.0638 13.7593 23.6096 14.0942 23.2747C14.4291 22.9398 14.8833 22.7517 15.3569 22.7517ZM19.9997 19.8945C20.7575 19.8945 21.4842 20.1956 22.02 20.7314C22.5558 21.2672 22.8569 21.9939 22.8569 22.7517C22.8569 23.5094 22.5558 24.2362 22.02 24.772C21.4842 25.3078 20.7575 25.6088 19.9997 25.6088C19.242 25.6088 18.5152 25.3078 17.9794 24.772C17.4436 24.2362 17.1426 23.5094 17.1426 22.7517C17.1426 21.9939 17.4436 21.2672 17.9794 20.7314C18.5152 20.1956 19.242 19.8945 19.9997 19.8945Z" fill="white"/>
</g>
<defs>
<clipPath id="clip0_145_532">
<rect width="17.1429" height="17.1429" fill="white" transform="translate(11.4277 17.752)"/>
</clipPath>
</defs>
</svg>
