<svg width="34" height="41" viewBox="0 0 34 41" fill="none" xmlns="http://www.w3.org/2000/svg">
<path d="M21.4614 34.4359C21.0777 34.0581 16.4281 32.2596 15.5843 31.9204C14.7451 31.587 14.4103 30.6633 14.4103 30.6633C14.4103 30.6633 14.0325 30.8722 14.0325 30.2855C14.0325 29.6981 14.4103 30.6633 14.7881 28.3981C14.7881 28.3981 15.8362 28.1041 15.6281 25.6722H15.3762C15.3762 25.6722 16.0058 23.0722 15.3762 22.1922C14.7443 21.3122 14.4969 20.7255 13.1095 20.3048C11.7243 19.8848 12.2281 19.9685 11.2221 20.0115C10.2147 20.0537 9.3762 20.5989 9.3762 20.8915C9.3762 20.8915 8.74657 20.9337 8.4962 21.1855C8.24435 21.4374 7.82509 22.6107 7.82509 22.9041C7.82509 23.1974 8.03472 25.1707 8.24435 25.5885L7.99472 25.67C7.78509 28.1026 8.83324 28.3974 8.83324 28.3974C9.21101 30.6626 9.58879 29.6974 9.58879 30.2848C9.58879 30.8715 9.21101 30.6626 9.21101 30.6626C9.21101 30.6626 8.87546 31.5855 8.03694 31.9196C7.19842 32.2552 2.54361 34.0581 2.16509 34.4352C1.78731 34.8204 1.82953 36.5804 1.82953 36.5804H10.7451L11.3955 34.0174L10.8177 33.4396L11.8125 32.4433L12.8073 33.4389L12.2295 34.0166L12.8799 36.5796H21.7955C21.7955 36.5796 21.8421 34.8181 21.4599 34.4337L21.4614 34.4359Z" fill="white"/>
<path fill-rule="evenodd" clip-rule="evenodd" d="M5.52446 15.5152C5.55668 15.5778 5.56483 15.6582 5.58075 15.8189C5.61112 16.1226 5.62631 16.2745 5.69001 16.3582C5.7297 16.4101 5.78244 16.4507 5.84288 16.4756C5.90331 16.5006 5.96928 16.5092 6.03409 16.5004C6.13779 16.4867 6.25631 16.39 6.4926 16.1967C6.61742 16.0941 6.68001 16.043 6.74705 16.0215C6.83243 15.9942 6.92481 15.9988 7.00705 16.0345C7.07186 16.0626 7.12927 16.1196 7.24297 16.2337L7.57409 16.5648C7.68816 16.6789 7.7452 16.7359 7.77334 16.8007C7.80898 16.883 7.81359 16.9754 7.78631 17.0607C7.76483 17.1278 7.71372 17.1904 7.61149 17.3152C7.41779 17.5519 7.32112 17.67 7.30705 17.7741C7.29838 17.8389 7.307 17.9048 7.33205 17.9651C7.35709 18.0255 7.39766 18.0782 7.44964 18.1178C7.53297 18.1815 7.6852 18.1967 7.98927 18.227C8.14964 18.243 8.23001 18.2511 8.29297 18.2833C8.3724 18.3245 8.43424 18.3931 8.46705 18.4763C8.49334 18.5419 8.49334 18.6226 8.49334 18.7841V19.2522C8.49334 19.4137 8.49334 19.4945 8.46742 19.5596C8.4345 19.6431 8.37238 19.7118 8.2926 19.753C8.23001 19.7852 8.14964 19.7933 7.9889 19.8093C7.6852 19.8396 7.53334 19.8548 7.44964 19.9185C7.39767 19.9582 7.35713 20.011 7.33215 20.0714C7.30717 20.1318 7.29864 20.1978 7.30742 20.2626C7.32149 20.3663 7.41816 20.4848 7.61149 20.7211C7.71372 20.8459 7.76483 20.9082 7.78631 20.9756C7.81359 21.0609 7.80898 21.1533 7.77334 21.2356C7.7452 21.3004 7.68816 21.3574 7.57409 21.4715L7.24297 21.8022C7.1289 21.9167 7.07186 21.9737 7.00705 22.0015C6.92481 22.0371 6.83243 22.0417 6.74705 22.0145C6.68001 21.993 6.61742 21.9419 6.4926 21.8396C6.25594 21.6463 6.13779 21.5496 6.03409 21.5359C5.96928 21.5272 5.90331 21.5357 5.84288 21.5607C5.78244 21.5857 5.7297 21.6262 5.69001 21.6782C5.62631 21.7615 5.61112 21.9133 5.58075 22.2174C5.56483 22.3782 5.55668 22.4585 5.52446 22.5211C5.48341 22.6008 5.41485 22.6629 5.33149 22.6959C5.26594 22.7219 5.1852 22.7219 5.02372 22.7219H4.55557C4.39409 22.7219 4.31334 22.7219 4.24816 22.6959C4.16466 22.663 4.09596 22.6009 4.05483 22.5211C4.0226 22.4585 4.01446 22.3782 3.99853 22.2174C3.96816 21.9137 3.95297 21.7619 3.88927 21.6782C3.84961 21.6262 3.79693 21.5857 3.73657 21.5608C3.67621 21.5358 3.61031 21.5272 3.54557 21.5359C3.44149 21.5496 3.32334 21.6463 3.08668 21.8396C2.96186 21.9422 2.89927 21.9933 2.83223 22.0148C2.74685 22.0421 2.65448 22.0375 2.57223 22.0019C2.50742 21.9737 2.45001 21.9167 2.33631 21.8026L2.0052 21.4715C1.89112 21.3574 1.83409 21.3004 1.80594 21.2356C1.7703 21.1533 1.76569 21.0609 1.79297 20.9756C1.81446 20.9085 1.86557 20.8459 1.96779 20.7211C2.16149 20.4845 2.25816 20.3663 2.27186 20.2622C2.28057 20.1975 2.27201 20.1316 2.24703 20.0712C2.22205 20.0109 2.18155 19.9582 2.12964 19.9185C2.04631 19.8548 1.89409 19.8396 1.59001 19.8093C1.42964 19.7933 1.34927 19.7852 1.28631 19.753C1.20688 19.7118 1.14505 19.6432 1.11223 19.56C1.08594 19.4945 1.08594 19.4137 1.08594 19.2522V18.7841C1.08594 18.6226 1.08594 18.5419 1.11186 18.4767C1.14478 18.3932 1.20691 18.3245 1.28668 18.2833C1.34927 18.2511 1.42964 18.243 1.59038 18.227C1.89409 18.1967 2.04631 18.1815 2.12964 18.1178C2.18162 18.0782 2.22219 18.0255 2.24723 17.9651C2.27228 17.9048 2.2809 17.8389 2.27223 17.7741C2.25816 17.67 2.16112 17.5519 1.96779 17.3148C1.86557 17.19 1.81446 17.1278 1.79297 17.0604C1.76569 16.975 1.7703 16.8826 1.80594 16.8004C1.83409 16.7359 1.89112 16.6785 2.0052 16.5645L2.33631 16.2337C2.45038 16.1196 2.50742 16.0622 2.57223 16.0345C2.65448 15.9988 2.74685 15.9942 2.83223 16.0215C2.89927 16.043 2.96186 16.0941 3.08668 16.1963C3.32334 16.3896 3.44149 16.4863 3.5452 16.5004C3.61009 16.5092 3.67616 16.5006 3.73667 16.4756C3.79718 16.4505 3.84996 16.4099 3.88964 16.3578C3.9526 16.2745 3.96816 16.1226 3.99853 15.8185C4.01446 15.6582 4.0226 15.5778 4.05483 15.5148C4.09594 15.4353 4.16449 15.3733 4.24779 15.3404C4.31334 15.3145 4.39409 15.3145 4.55557 15.3145H5.02372C5.1852 15.3145 5.26594 15.3145 5.33112 15.3404C5.41462 15.3733 5.48332 15.4354 5.52446 15.5152ZM4.78964 20.4996C5.18255 20.4996 5.55938 20.3436 5.83721 20.0657C6.11504 19.7879 6.27112 19.4111 6.27112 19.0182C6.27112 18.6252 6.11504 18.2484 5.83721 17.9706C5.55938 17.6928 5.18255 17.5367 4.78964 17.5367C4.39673 17.5367 4.01991 17.6928 3.74208 17.9706C3.46424 18.2484 3.30816 18.6252 3.30816 19.0182C3.30816 19.4111 3.46424 19.7879 3.74208 20.0657C4.01991 20.3436 4.39673 20.4996 4.78964 20.4996Z" fill="white"/>
<g clip-path="url(#clip0_141_464)">
<path d="M25.4592 13.833C24.4211 13.8468 23.4304 14.2693 22.7019 15.0089C21.9734 15.7485 21.5659 16.7455 21.5678 17.7836C21.5085 19.4034 21.3802 21.2108 20.6098 22.317C23.2567 23.9268 25.5184 23.7096 25.5184 23.7096C25.5184 23.7096 27.7801 23.9268 30.4271 22.317C29.5876 20.9639 29.4098 19.3046 29.469 17.7836C29.469 15.6009 27.7011 13.833 25.5184 13.833H25.4592ZM22.4172 24.0256C19.5925 24.6281 17.6172 26.0305 17.6172 27.6602V31.6108H25.5184L22.5555 27.6602H20.0863M25.5184 31.6108L27.2764 24.5096C27.2764 24.5096 26.5061 24.6972 25.5184 24.6972C24.5308 24.6972 23.7604 24.5096 23.7604 24.5096M25.5184 31.6108H33.4197V27.6602C33.4197 26.0305 31.4443 24.6281 28.6197 24.0256L30.9505 27.6602H28.4814L25.5184 31.6108Z" fill="white"/>
</g>
<path fill-rule="evenodd" clip-rule="evenodd" d="M16.6192 2.38293C16.6837 2.50811 16.7 2.66885 16.7318 2.99033C16.7926 3.59774 16.8229 3.90145 16.9503 4.06885C17.0297 4.1728 17.1352 4.25387 17.2561 4.30383C17.3769 4.35379 17.5089 4.37086 17.6385 4.3533C17.8459 4.32589 18.0829 4.13256 18.5555 3.74589C18.8052 3.5407 18.9303 3.43848 19.0644 3.39552C19.2352 3.34095 19.4199 3.35017 19.5844 3.42145C19.714 3.47774 19.8289 3.59182 20.0563 3.81996L20.7185 4.48219C20.9466 4.71033 21.0607 4.82441 21.117 4.95404C21.1883 5.11852 21.1975 5.30328 21.1429 5.47404C21.1 5.60811 20.9977 5.7333 20.7933 5.98293C20.4059 6.45626 20.2126 6.69256 20.1844 6.9007C20.1671 7.03026 20.1843 7.16209 20.2344 7.28282C20.2845 7.40355 20.3656 7.50888 20.4696 7.58811C20.6363 7.71552 20.9407 7.74589 21.5489 7.80663C21.8696 7.83848 22.0303 7.85478 22.1563 7.91922C22.3151 8.00159 22.4388 8.13868 22.5044 8.30515C22.557 8.43626 22.557 8.59774 22.557 8.92071V9.857C22.557 10.18 22.557 10.3414 22.5051 10.4718C22.4393 10.6388 22.3151 10.7762 22.1555 10.8585C22.0303 10.9229 21.8696 10.9392 21.5481 10.9711C20.9407 11.0318 20.637 11.0622 20.4696 11.1896C20.3657 11.269 20.2846 11.3745 20.2346 11.4953C20.1847 11.6162 20.1676 11.7481 20.1852 11.8777C20.2133 12.0851 20.4066 12.3222 20.7933 12.7948C20.9977 13.0444 21.1 13.1689 21.1429 13.3037C21.1975 13.4744 21.1883 13.6592 21.117 13.8237C21.0607 13.9533 20.9466 14.0674 20.7185 14.2955L20.0563 14.957C19.8281 15.1859 19.714 15.3 19.5844 15.3555C19.4199 15.4268 19.2352 15.436 19.0644 15.3814C18.9303 15.3385 18.8052 15.2363 18.5555 15.0318C18.0822 14.6452 17.8459 14.4518 17.6385 14.4244C17.5089 14.4069 17.3769 14.4239 17.2561 14.4739C17.1352 14.5238 17.0297 14.6049 16.9503 14.7089C16.8229 14.8755 16.7926 15.1792 16.7318 15.7874C16.7 16.1089 16.6837 16.2696 16.6192 16.3948C16.5371 16.5542 16.4 16.6784 16.2333 16.7444C16.1022 16.7963 15.9407 16.7963 15.6177 16.7963H14.6814C14.3585 16.7963 14.197 16.7963 14.0666 16.7444C13.8996 16.6786 13.7622 16.5543 13.68 16.3948C13.6155 16.2696 13.5992 16.1089 13.5674 15.7874C13.5066 15.18 13.4763 14.8763 13.3489 14.7089C13.2695 14.605 13.1642 14.524 13.0434 14.4741C12.9227 14.4241 12.7909 14.407 12.6614 14.4244C12.4533 14.4518 12.217 14.6452 11.7437 15.0318C11.494 15.237 11.3689 15.3392 11.2348 15.3822C11.064 15.4368 10.8793 15.4275 10.7148 15.3563C10.5852 15.3 10.4703 15.1859 10.2429 14.9577L9.58071 14.2955C9.35256 14.0674 9.23848 13.9533 9.18219 13.8237C9.11091 13.6592 9.1017 13.4744 9.15626 13.3037C9.19922 13.1696 9.30145 13.0444 9.50589 12.7948C9.8933 12.3214 10.0866 12.0852 10.114 11.877C10.1315 11.7475 10.1143 11.6157 10.0644 11.495C10.0144 11.3743 9.93342 11.2689 9.82959 11.1896C9.66293 11.0622 9.35848 11.0318 8.75034 10.9711C8.42959 10.9392 8.26885 10.9229 8.14293 10.8585C7.98407 10.7761 7.86041 10.639 7.79478 10.4726C7.74219 10.3414 7.74219 10.18 7.74219 9.857V8.92071C7.74219 8.59774 7.74219 8.43626 7.79404 8.30589C7.85988 8.1389 7.98412 8.00149 8.14367 7.91922C8.26885 7.85478 8.42959 7.83848 8.75108 7.80663C9.35848 7.74589 9.66293 7.71552 9.82959 7.58811C9.93355 7.50888 10.0147 7.40355 10.0648 7.28282C10.1149 7.16209 10.1321 7.03026 10.1148 6.9007C10.0866 6.69256 9.89256 6.45626 9.50589 5.98219C9.30145 5.73256 9.19922 5.60811 9.15626 5.4733C9.1017 5.30254 9.11091 5.11778 9.18219 4.9533C9.23848 4.82441 9.35256 4.70959 9.58071 4.48145L10.2429 3.81996C10.4711 3.59182 10.5852 3.477 10.7148 3.42145C10.8793 3.35017 11.064 3.34095 11.2348 3.39552C11.3689 3.43848 11.494 3.5407 11.7437 3.74515C12.217 4.13182 12.4533 4.32515 12.6607 4.3533C12.7905 4.37091 12.9226 4.3538 13.0436 4.3037C13.1647 4.2536 13.2702 4.17231 13.3496 4.06811C13.4755 3.90145 13.5066 3.59774 13.5674 2.98959C13.5992 2.66885 13.6155 2.50811 13.68 2.38219C13.7622 2.22305 13.8993 2.09911 14.0659 2.0333C14.197 1.98145 14.3585 1.98145 14.6814 1.98145H15.6177C15.9407 1.98145 16.1022 1.98145 16.2326 2.0333C16.3996 2.09914 16.537 2.22338 16.6192 2.38293ZM15.1496 12.3518C15.9354 12.3518 16.6891 12.0396 17.2447 11.484C17.8004 10.9283 18.1126 10.1747 18.1126 9.38885C18.1126 8.60303 17.8004 7.84939 17.2447 7.29372C16.6891 6.73806 15.9354 6.42589 15.1496 6.42589C14.3638 6.42589 13.6101 6.73806 13.0545 7.29372C12.4988 7.84939 12.1866 8.60303 12.1866 9.38885C12.1866 10.1747 12.4988 10.9283 13.0545 11.484C13.6101 12.0396 14.3638 12.3518 15.1496 12.3518Z" fill="white"/>
<defs>
<clipPath id="clip0_141_464">
<rect width="16.2963" height="23.7037" fill="white" transform="translate(17.3691 10.8701)"/>
</clipPath>
</defs>
</svg>
