<svg width="34" height="41" viewBox="0 0 34 41" fill="none" xmlns="http://www.w3.org/2000/svg">
<g clip-path="url(#clip0_143_512)">
<path d="M27.0205 27.1355C26.5545 26.923 25.4155 27.1355 25.4155 27.1355L22.1025 27.8785C22.1025 27.8785 21.2739 28.144 20.4974 28.144C19.7209 28.144 20.1854 29.2069 20.7049 29.5779C21.2244 29.9489 21.6019 29.9289 21.6019 29.9289L24.277 29.8964C24.277 29.8964 21.947 30.3214 21.0669 30.3744C20.6214 30.4014 19.8569 30.0874 19.0019 29.7369C18.1694 29.3949 17.2519 29.0184 16.4599 28.8874C14.8549 28.6225 14.5959 30.0559 15.1139 30.5869C15.6314 31.1179 19.7729 33.1354 20.4974 33.4009C21.0654 33.6089 21.752 33.5399 22.5265 33.4619C22.741 33.4404 22.9625 33.4179 23.1895 33.4009C24.0945 33.3324 24.7855 33.1124 25.4695 32.8949C26.2035 32.6619 26.929 32.4314 27.9005 32.3919C28.2265 32.3789 28.9895 32.4194 29.373 32.4419V28.011C28.71 27.775 27.3675 27.2935 27.0205 27.1355Z" fill="white"/>
</g>
<g clip-path="url(#clip1_143_512)">
<path d="M1.125 13.459C1.125 13.5916 1.17768 13.7188 1.27145 13.8125C1.36522 13.9063 1.4924 13.959 1.62501 13.959H3.12503C3.25764 13.959 3.38481 13.9063 3.47858 13.8125C3.57235 13.7188 3.62503 13.5916 3.62503 13.459V7.96102C3.62503 7.82841 3.57235 7.70124 3.47858 7.60747C3.38481 7.5137 3.25764 7.46103 3.12503 7.46103H1.62501C1.4924 7.46103 1.36522 7.5137 1.27145 7.60747C1.17768 7.70124 1.125 7.82841 1.125 7.96102V13.459ZM6.97757 13.8645C7.44358 14.077 8.5826 13.8645 8.5826 13.8645L11.8956 13.1215C11.8956 13.1215 12.7241 12.856 13.5007 12.856C14.2772 12.856 13.8127 11.793 13.2932 11.422C12.7736 11.051 12.3961 11.071 12.3961 11.071L9.72111 11.1035C9.72111 11.1035 12.0511 10.6785 12.9312 10.6255C13.3767 10.5985 14.1412 10.9125 14.9962 11.263C15.8287 11.605 16.7462 11.9815 17.5382 12.1125C19.1432 12.3775 19.4022 10.944 18.8842 10.413C18.3667 9.88201 14.2252 7.86452 13.5007 7.59902C12.9327 7.39102 12.2461 7.46002 11.4716 7.53802C11.2571 7.55952 11.0356 7.58202 10.8086 7.59902C9.90361 7.66752 9.2126 7.88752 8.52859 8.10502C7.79458 8.33802 7.06908 8.56852 6.09756 8.60802C5.77156 8.62102 5.00855 8.58052 4.62504 8.55802V12.989C5.28805 13.225 6.63057 13.7065 6.97757 13.8645Z" fill="white"/>
</g>
<g clip-path="url(#clip2_143_512)">
<path d="M23.9403 21.6503L15.3304 13.4658C15.2081 13.3495 15.0439 13.2859 14.8739 13.2889C14.704 13.2919 14.5422 13.3614 14.4243 13.4819L9.67886 18.3309C9.56087 18.4514 9.49631 18.6132 9.49938 18.7807C9.50245 18.9482 9.5729 19.1076 9.69523 19.2239L18.3052 27.4084C18.4275 27.5247 18.5917 27.5883 18.7616 27.5853C18.9316 27.5823 19.0933 27.5129 19.2113 27.3923L23.9567 22.5434C24.0747 22.4228 24.1393 22.261 24.1362 22.0935C24.1331 21.926 24.0627 21.7666 23.9403 21.6503ZM16.9352 24.3512L12.8447 20.4628C13.1805 19.9397 13.3533 19.3312 13.342 18.7123C13.3307 18.0935 13.1356 17.4915 12.7809 16.9807L13.1672 16.5859C13.6979 16.9168 14.3154 17.0872 14.9433 17.076C15.5713 17.0649 16.1821 16.8726 16.7004 16.523L20.7908 20.4114C20.4551 20.9345 20.2822 21.5431 20.2936 22.1619C20.3049 22.7808 20.5 23.3828 20.8547 23.8936L20.4684 24.2883C19.9376 23.9574 19.3201 23.787 18.6922 23.7982C18.0643 23.8094 17.4535 24.0016 16.9352 24.3512ZM21.7759 22.9522C21.6486 22.6992 21.5798 22.4215 21.5747 22.1391C21.5695 21.8567 21.628 21.5768 21.746 21.3194L22.5893 22.121L21.7759 22.9522ZM15.7452 15.6151C15.4885 15.7406 15.2067 15.8084 14.9202 15.8135C14.6337 15.8186 14.3496 15.7609 14.0885 15.6446L14.9019 14.8134L15.7452 15.6151ZM11.8596 17.922C11.987 18.175 12.0557 18.4528 12.0609 18.7351C12.0661 19.0175 12.0076 19.2975 11.8896 19.5548L11.0462 18.7532L11.8596 17.922ZM17.8904 25.2592C18.1471 25.1336 18.4289 25.0659 18.7154 25.0608C19.0019 25.0557 19.286 25.1134 19.5471 25.2297L18.7337 26.0608L17.8904 25.2592ZM18.3007 18.9218C17.9966 18.6328 17.6124 18.4391 17.1966 18.3652C16.7808 18.2914 16.3522 18.3407 15.9648 18.507C15.5775 18.6732 15.2489 18.949 15.0205 19.2993C14.7922 19.6496 14.6744 20.0588 14.682 20.4751C14.6896 20.8914 14.8224 21.2962 15.0634 21.6382C15.3044 21.9801 15.6429 22.244 16.0361 22.3964C16.4293 22.5487 16.8595 22.5828 17.2723 22.4942C17.6851 22.4056 18.062 22.1983 18.3553 21.8986C18.7486 21.4968 18.9638 20.9574 18.9535 20.3991C18.9433 19.8408 18.7085 19.3094 18.3007 18.9218ZM16.2246 21.0432C16.103 20.9276 16.0189 20.779 15.9829 20.6163C15.9469 20.4536 15.9608 20.284 16.0226 20.129C16.0844 19.974 16.1915 19.8405 16.3303 19.7455C16.4691 19.6505 16.6334 19.5982 16.8024 19.5951C16.9713 19.5921 17.1374 19.6386 17.2796 19.7286C17.4218 19.8186 17.5337 19.9482 17.6012 20.1009C17.6686 20.2536 17.6887 20.4225 17.6587 20.5865C17.6287 20.7504 17.5501 20.9018 17.4328 21.0217C17.2755 21.1825 17.0598 21.2751 16.8332 21.2791C16.6066 21.2831 16.3877 21.1983 16.2246 21.0432Z" fill="white"/>
</g>
<defs>
<clipPath id="clip0_143_512">
<rect width="20.5067" height="20.2106" fill="white" transform="matrix(-1 0 0 1 33.873 20.29)"/>
</clipPath>
<clipPath id="clip1_143_512">
<rect width="20.5067" height="20.2106" fill="white" transform="matrix(1 0 0 -1 0.125 20.71)"/>
</clipPath>
<clipPath id="clip2_143_512">
<rect width="13.5763" height="13.5692" fill="white" transform="matrix(0.724786 0.688974 -0.699436 0.714695 16.6445 10.9111)"/>
</clipPath>
</defs>
</svg>
