<svg width="24" height="25" viewBox="0 0 24 25" fill="none" xmlns="http://www.w3.org/2000/svg">
<path d="M12 22.5C11.7667 22.5 11.5667 22.4333 11.4 22.3C11.2333 22.1667 11.1083 21.9917 11.025 21.775C10.7083 20.8417 10.3083 19.9667 9.825 19.15C9.35833 18.3333 8.7 17.375 7.85 16.275C7 15.175 6.30833 14.125 5.775 13.125C5.25833 12.125 5 10.9167 5 9.5C5 7.55 5.675 5.9 7.025 4.55C8.39167 3.18333 10.05 2.5 12 2.5C13.95 2.5 15.6 3.18333 16.95 4.55C18.3167 5.9 19 7.55 19 9.5C19 11.0167 18.7083 12.2833 18.125 13.3C17.5583 14.3 16.9 15.2917 16.15 16.275C15.25 17.475 14.5667 18.475 14.1 19.275C13.65 20.0583 13.275 20.8917 12.975 21.775C12.8917 22.0083 12.7583 22.1917 12.575 22.325C12.4083 22.4417 12.2167 22.5 12 22.5ZM12 12C12.7 12 13.2917 11.7583 13.775 11.275C14.2583 10.7917 14.5 10.2 14.5 9.5C14.5 8.8 14.2583 8.20833 13.775 7.725C13.2917 7.24167 12.7 7 12 7C11.3 7 10.7083 7.24167 10.225 7.725C9.74167 8.20833 9.5 8.8 9.5 9.5C9.5 10.2 9.74167 10.7917 10.225 11.275C10.7083 11.7583 11.3 12 12 12Z" fill="white"/>
</svg>
