<svg width="25" height="25" viewBox="0 0 25 25" fill="none" xmlns="http://www.w3.org/2000/svg">
<path d="M5.33398 4.5H19.334C20.9908 4.5 22.3338 5.843 22.334 7.49974C22.2103 7.4997 22.0845 7.52277 21.9626 7.57152L13.0768 11.1259C12.5999 11.3166 12.068 11.3166 11.5912 11.1259L2.70538 7.57152C2.58349 7.52277 2.4577 7.4997 2.33398 7.49973C2.33413 5.843 3.67722 4.5 5.33398 4.5Z" fill="white"/>
<path d="M2.33398 9.57703V17.5C2.33398 19.1569 3.67713 20.5 5.33398 20.5H19.334C20.9908 20.5 22.334 19.1569 22.334 17.5V9.57703L13.8195 12.9828C12.8659 13.3643 11.8021 13.3643 10.8484 12.9828L2.33398 9.57703Z" fill="white"/>
</svg>
