<svg width="32" height="33" viewBox="0 0 32 33" fill="none" xmlns="http://www.w3.org/2000/svg">
<path d="M15.9993 3.16699C17.194 3.16699 18.3513 3.32433 19.4527 3.61899L16.618 6.45233C16.403 6.66824 16.2133 6.90801 16.0527 7.16699H15.9993C14.1534 7.16699 12.3489 7.71438 10.814 8.73994C9.27917 9.7655 8.08289 11.2232 7.37647 12.9286C6.67005 14.6341 6.48522 16.5107 6.84535 18.3212C7.20548 20.1317 8.0944 21.7947 9.39968 23.1C10.705 24.4053 12.368 25.2942 14.1785 25.6543C15.989 26.0145 17.8656 25.8296 19.5711 25.1232C21.2765 24.4168 22.7342 23.2205 23.7597 21.6856C24.7853 20.1508 25.3327 18.3463 25.3327 16.5003V16.447C25.5905 16.287 25.8282 16.0981 26.046 15.8803L28.8807 13.047C29.1753 14.1483 29.3327 15.3057 29.3327 16.5003C29.3327 23.8643 23.3633 29.8337 15.9993 29.8337C8.63535 29.8337 2.66602 23.8643 2.66602 16.5003C2.66602 9.13633 8.63535 3.16699 15.9993 3.16699ZM15.4473 9.85633C15.4473 10.991 15.3913 12.1417 15.4527 13.275L14.7327 13.995C14.485 14.2427 14.2885 14.5367 14.1545 14.8603C14.0205 15.1839 13.9515 15.5307 13.9515 15.881C13.9515 16.2313 14.0205 16.5781 14.1545 16.9017C14.2885 17.2253 14.485 17.5193 14.7327 17.767C14.9804 18.0147 15.2744 18.2111 15.598 18.3452C15.9216 18.4792 16.2684 18.5482 16.6187 18.5482C16.9689 18.5482 17.3158 18.4792 17.6394 18.3452C17.963 18.2111 18.257 18.0147 18.5047 17.767L19.2247 17.047C20.358 17.1083 21.5073 17.0523 22.6433 17.0523C22.538 18.3194 22.0725 19.53 21.3018 20.5413C20.531 21.5525 19.4872 22.3223 18.2933 22.7597C17.0994 23.1972 15.8054 23.2841 14.5637 23.0103C13.3221 22.7364 12.1846 22.1132 11.2855 21.2141C10.3865 20.315 9.76325 19.1776 9.48939 17.936C9.21554 16.6943 9.30247 15.4002 9.73993 14.2064C10.1774 13.0125 10.9471 11.9686 11.9584 11.1979C12.9697 10.4271 14.1802 9.96165 15.4473 9.85633ZM24.6713 3.33633C24.9147 3.43723 25.1227 3.60797 25.2692 3.827C25.4156 4.04603 25.4938 4.30353 25.494 4.56699V7.00699H27.9327C28.1963 7.00705 28.4541 7.08528 28.6733 7.23179C28.8925 7.3783 29.0634 7.58652 29.1643 7.83012C29.2651 8.07372 29.2915 8.34176 29.2401 8.60037C29.1887 8.85897 29.0618 9.09652 28.8753 9.28299L24.1593 13.9937C23.9094 14.2437 23.5703 14.3842 23.2167 14.3843H19.9993L17.562 16.823C17.3118 17.0732 16.9725 17.2137 16.6187 17.2137C16.2649 17.2137 15.9255 17.0732 15.6753 16.823C15.4252 16.5728 15.2846 16.2335 15.2846 15.8797C15.2846 15.5258 15.4252 15.1865 15.6753 14.9363L18.114 12.5003V9.28166C18.1139 9.10635 18.1483 8.93274 18.2153 8.77076C18.2824 8.60877 18.3807 8.4616 18.5047 8.33766L23.218 3.62433C23.4045 3.43775 23.6421 3.31067 23.9008 3.25917C24.1595 3.20766 24.4276 3.23405 24.6713 3.33499" fill="#33439A"/>
</svg>
