<svg width="32" height="33" viewBox="0 0 32 33" fill="none" xmlns="http://www.w3.org/2000/svg">
<path fill-rule="evenodd" clip-rule="evenodd" d="M1.33398 16.5003C4.03798 10.9643 9.58998 7.16699 16.0007 7.16699C22.4113 7.16699 27.9633 10.9643 30.6673 16.5003C27.9633 22.0363 22.4113 25.8337 16.0007 25.8337C9.58998 25.8337 4.03798 22.0363 1.33398 16.5003ZM16.0007 21.167C16.6135 21.167 17.2203 21.0463 17.7865 20.8118C18.3527 20.5772 18.8671 20.2335 19.3005 19.8002C19.7338 19.3668 20.0776 18.8524 20.3121 18.2862C20.5466 17.72 20.6673 17.1132 20.6673 16.5003C20.6673 15.8875 20.5466 15.2807 20.3121 14.7145C20.0776 14.1483 19.7338 13.6338 19.3005 13.2005C18.8671 12.7672 18.3527 12.4234 17.7865 12.1889C17.2203 11.9544 16.6135 11.8337 16.0007 11.8337C14.763 11.8337 13.576 12.3253 12.7008 13.2005C11.8257 14.0757 11.334 15.2626 11.334 16.5003C11.334 17.738 11.8257 18.925 12.7008 19.8002C13.576 20.6753 14.763 21.167 16.0007 21.167Z" fill="#33439A"/>
</svg>
